<svg xmlns="http://www.w3.org/2000/svg" xmlns:xlink="http://www.w3.org/1999/xlink" width="500" zoomAndPan="magnify" viewBox="0 0 375 374.999991" height="500" preserveAspectRatio="xMidYMid meet" version="1.0"><defs><clipPath id="6cc348791c"><path d="M 90.429688 129 L 228 129 L 228 373.65625 L 90.429688 373.65625 Z M 90.429688 129 " clip-rule="nonzero"/></clipPath><clipPath id="4215b6da96"><path d="M 147 1.65625 L 284.679688 1.65625 L 284.679688 246 L 147 246 Z M 147 1.65625 " clip-rule="nonzero"/></clipPath></defs><g clip-path="url(#6cc348791c)"><path fill="#8c52ff" d="M 130.648438 129.761719 L 207.4375 231.40625 C 208.4375 232.730469 209.402344 234.074219 210.332031 235.441406 C 211.265625 236.808594 212.164062 238.199219 213.027344 239.613281 C 213.890625 241.027344 214.71875 242.457031 215.511719 243.910156 C 216.304688 245.363281 217.0625 246.835938 217.785156 248.328125 C 218.503906 249.816406 219.1875 251.324219 219.835938 252.847656 C 220.484375 254.371094 221.09375 255.910156 221.664062 257.464844 C 222.238281 259.015625 222.769531 260.585938 223.265625 262.164062 C 223.757812 263.742188 224.214844 265.335938 224.632812 266.9375 C 225.046875 268.539062 225.425781 270.152344 225.761719 271.773438 C 226.101562 273.390625 226.398438 275.019531 226.65625 276.65625 C 226.914062 278.292969 227.132812 279.933594 227.308594 281.578125 C 227.488281 283.222656 227.625 284.875 227.71875 286.527344 C 227.816406 288.179688 227.871094 289.832031 227.886719 291.488281 C 227.902344 293.144531 227.875 294.800781 227.808594 296.453125 C 227.742188 298.109375 227.636719 299.757812 227.488281 301.40625 C 227.34375 303.058594 227.15625 304.703125 226.925781 306.339844 C 226.699219 307.980469 226.433594 309.613281 226.125 311.242188 C 225.816406 312.867188 225.46875 314.484375 225.082031 316.09375 C 224.691406 317.707031 224.265625 319.304688 223.800781 320.894531 C 223.335938 322.480469 222.828125 324.058594 222.285156 325.621094 C 221.742188 327.1875 221.164062 328.734375 220.542969 330.269531 C 219.921875 331.804688 219.265625 333.324219 218.574219 334.828125 C 217.878906 336.332031 217.148438 337.816406 216.382812 339.285156 C 215.613281 340.75 214.8125 342.199219 213.976562 343.625 C 213.136719 345.054688 212.265625 346.460938 211.359375 347.847656 C 210.453125 349.230469 209.511719 350.59375 208.539062 351.933594 C 207.5625 353.269531 206.558594 354.585938 205.519531 355.875 C 204.480469 357.164062 203.410156 358.429688 202.3125 359.664062 C 201.210938 360.902344 200.082031 362.113281 198.921875 363.292969 C 197.761719 364.476562 196.574219 365.628906 195.359375 366.75 C 194.144531 367.875 192.898438 368.96875 191.628906 370.03125 C 190.359375 371.09375 189.066406 372.121094 187.746094 373.121094 L 110.953125 271.476562 C 109.957031 270.152344 108.992188 268.808594 108.058594 267.441406 C 107.128906 266.074219 106.230469 264.683594 105.367188 263.269531 C 104.5 261.859375 103.671875 260.425781 102.878906 258.972656 C 102.085938 257.519531 101.328125 256.046875 100.609375 254.558594 C 99.886719 253.066406 99.203125 251.558594 98.554688 250.035156 C 97.90625 248.511719 97.296875 246.972656 96.726562 245.417969 C 96.15625 243.867188 95.621094 242.300781 95.128906 240.71875 C 94.632812 239.140625 94.175781 237.546875 93.757812 235.945312 C 93.34375 234.34375 92.964844 232.730469 92.628906 231.113281 C 92.289062 229.492188 91.992188 227.863281 91.734375 226.226562 C 91.476562 224.59375 91.257812 222.953125 91.082031 221.304688 C 90.90625 219.660156 90.769531 218.007812 90.671875 216.355469 C 90.574219 214.703125 90.519531 213.050781 90.503906 211.394531 C 90.488281 209.738281 90.515625 208.085938 90.582031 206.429688 C 90.648438 204.777344 90.753906 203.125 90.902344 201.476562 C 91.046875 199.824219 91.234375 198.179688 91.464844 196.542969 C 91.691406 194.902344 91.960938 193.269531 92.269531 191.640625 C 92.574219 190.015625 92.921875 188.398438 93.3125 186.789062 C 93.699219 185.179688 94.125 183.578125 94.589844 181.992188 C 95.058594 180.402344 95.5625 178.824219 96.105469 177.261719 C 96.648438 175.699219 97.230469 174.148438 97.847656 172.613281 C 98.46875 171.078125 99.125 169.558594 99.820312 168.054688 C 100.511719 166.550781 101.242188 165.066406 102.007812 163.597656 C 102.777344 162.132812 103.578125 160.683594 104.417969 159.257812 C 105.253906 157.828125 106.125 156.421875 107.035156 155.035156 C 107.941406 153.652344 108.878906 152.289062 109.855469 150.949219 C 110.828125 149.613281 111.835938 148.296875 112.871094 147.007812 C 113.910156 145.71875 114.980469 144.453125 116.078125 143.21875 C 117.179688 141.980469 118.308594 140.769531 119.46875 139.589844 C 120.628906 138.40625 121.816406 137.253906 123.03125 136.132812 C 124.25 135.007812 125.492188 133.914062 126.761719 132.851562 C 128.03125 131.792969 129.328125 130.761719 130.648438 129.761719 Z M 130.648438 129.761719 " fill-opacity="1" fillRule="nonzero"/></g><g clip-path="url(#4215b6da96)"><path fill="#5e17eb"  d="M 187.296875 1.800781 L 264.089844 103.449219 C 265.089844 104.769531 266.054688 106.113281 266.984375 107.484375 C 267.917969 108.851562 268.816406 110.242188 269.679688 111.65625 C 270.542969 113.070312 271.371094 114.503906 272.167969 115.957031 C 272.960938 117.410156 273.71875 118.882812 274.4375 120.375 C 275.160156 121.863281 275.84375 123.371094 276.492188 124.894531 C 277.140625 126.421875 277.75 127.960938 278.320312 129.515625 C 278.894531 131.070312 279.425781 132.636719 279.921875 134.21875 C 280.414062 135.796875 280.871094 137.390625 281.289062 138.992188 C 281.703125 140.597656 282.082031 142.207031 282.417969 143.828125 C 282.757812 145.449219 283.054688 147.078125 283.3125 148.714844 C 283.570312 150.351562 283.785156 151.992188 283.964844 153.640625 C 284.140625 155.285156 284.277344 156.9375 284.371094 158.589844 C 284.46875 160.242188 284.523438 161.898438 284.539062 163.554688 C 284.554688 165.210938 284.527344 166.867188 284.460938 168.523438 C 284.394531 170.175781 284.285156 171.828125 284.140625 173.480469 C 283.992188 175.128906 283.804688 176.773438 283.574219 178.414062 C 283.347656 180.054688 283.078125 181.6875 282.769531 183.316406 C 282.460938 184.941406 282.113281 186.5625 281.722656 188.171875 C 281.335938 189.78125 280.90625 191.382812 280.441406 192.96875 C 279.972656 194.558594 279.46875 196.136719 278.925781 197.699219 C 278.378906 199.265625 277.796875 200.816406 277.179688 202.351562 C 276.558594 203.886719 275.902344 205.40625 275.207031 206.910156 C 274.511719 208.414062 273.78125 209.898438 273.011719 211.367188 C 272.242188 212.832031 271.441406 214.28125 270.601562 215.710938 C 269.761719 217.136719 268.890625 218.542969 267.980469 219.929688 C 267.074219 221.3125 266.132812 222.675781 265.15625 224.015625 C 264.183594 225.355469 263.175781 226.667969 262.136719 227.957031 C 261.097656 229.246094 260.027344 230.511719 258.925781 231.75 C 257.824219 232.984375 256.691406 234.195312 255.53125 235.375 C 254.371094 236.558594 253.183594 237.710938 251.964844 238.832031 C 250.746094 239.957031 249.503906 241.046875 248.234375 242.109375 C 246.960938 243.171875 245.664062 244.203125 244.34375 245.199219 L 167.554688 143.554688 C 166.554688 142.234375 165.589844 140.886719 164.65625 139.519531 C 163.726562 138.148438 162.828125 136.757812 161.960938 135.347656 C 161.097656 133.933594 160.269531 132.5 159.476562 131.046875 C 158.683594 129.59375 157.925781 128.121094 157.203125 126.628906 C 156.480469 125.136719 155.796875 123.628906 155.148438 122.105469 C 154.503906 120.582031 153.894531 119.042969 153.320312 117.488281 C 152.75 115.933594 152.214844 114.367188 151.722656 112.785156 C 151.226562 111.203125 150.769531 109.613281 150.355469 108.007812 C 149.9375 106.40625 149.5625 104.792969 149.222656 103.171875 C 148.886719 101.550781 148.589844 99.921875 148.332031 98.285156 C 148.074219 96.648438 147.855469 95.007812 147.679688 93.363281 C 147.503906 91.714844 147.367188 90.066406 147.269531 88.410156 C 147.175781 86.757812 147.117188 85.101562 147.105469 83.445312 C 147.089844 81.789062 147.117188 80.136719 147.183594 78.480469 C 147.25 76.824219 147.355469 75.171875 147.503906 73.523438 C 147.652344 71.875 147.839844 70.230469 148.066406 68.589844 C 148.296875 66.949219 148.566406 65.3125 148.875 63.6875 C 149.183594 62.058594 149.53125 60.441406 149.917969 58.832031 C 150.308594 57.222656 150.734375 55.621094 151.203125 54.03125 C 151.667969 52.441406 152.171875 50.867188 152.71875 49.300781 C 153.261719 47.738281 153.84375 46.1875 154.464844 44.652344 C 155.085938 43.117188 155.742188 41.597656 156.4375 40.09375 C 157.132812 38.589844 157.863281 37.105469 158.628906 35.636719 C 159.398438 34.167969 160.203125 32.722656 161.039062 31.292969 C 161.878906 29.863281 162.753906 28.457031 163.660156 27.074219 C 164.570312 25.6875 165.511719 24.324219 166.484375 22.988281 C 167.460938 21.648438 168.46875 20.332031 169.507812 19.042969 C 170.546875 17.753906 171.617188 16.492188 172.71875 15.253906 C 173.820312 14.015625 174.949219 12.808594 176.109375 11.625 C 177.269531 10.445312 178.460938 9.292969 179.675781 8.167969 C 180.894531 7.046875 182.140625 5.953125 183.410156 4.890625 C 184.679688 3.828125 185.976562 2.800781 187.296875 1.800781 Z M 187.296875 1.800781 " fill-opacity="1" fillRule="nonzero"/></g></svg>